<mxfile host="app.diagrams.net" modified="2023-07-31T18:49:24.205Z" agent="Mozilla/5.0 (Windows NT 10.0; Win64; x64; rv:109.0) Gecko/20100101 Firefox/115.0" etag="vxGsFzJQXSsNxdjss7A_" version="21.6.6" type="device">
  <diagram name="Page-1" id="1s85LgL3I_whGc7acEg-">
    <mxGraphModel dx="545" dy="597" grid="1" gridSize="10" guides="1" tooltips="1" connect="1" arrows="1" fold="1" page="1" pageScale="1" pageWidth="850" pageHeight="1100" math="0" shadow="0">
      <root>
        <mxCell id="0" />
        <mxCell id="1" parent="0" />
        <mxCell id="IhnVgXeugCR_GJlkB-3m-7" style="edgeStyle=orthogonalEdgeStyle;rounded=0;orthogonalLoop=1;jettySize=auto;html=1;entryX=0.5;entryY=0;entryDx=0;entryDy=0;" edge="1" parent="1" source="IhnVgXeugCR_GJlkB-3m-2" target="IhnVgXeugCR_GJlkB-3m-3">
          <mxGeometry relative="1" as="geometry">
            <mxPoint x="180" y="170" as="targetPoint" />
          </mxGeometry>
        </mxCell>
        <mxCell id="IhnVgXeugCR_GJlkB-3m-8" style="edgeStyle=orthogonalEdgeStyle;rounded=0;orthogonalLoop=1;jettySize=auto;html=1;entryX=0.5;entryY=0;entryDx=0;entryDy=0;" edge="1" parent="1" source="IhnVgXeugCR_GJlkB-3m-2" target="IhnVgXeugCR_GJlkB-3m-6">
          <mxGeometry relative="1" as="geometry" />
        </mxCell>
        <mxCell id="IhnVgXeugCR_GJlkB-3m-2" value="Prompt user for an input" style="rounded=0;whiteSpace=wrap;html=1;" vertex="1" parent="1">
          <mxGeometry x="120" y="80" width="120" height="60" as="geometry" />
        </mxCell>
        <mxCell id="IhnVgXeugCR_GJlkB-3m-14" style="edgeStyle=orthogonalEdgeStyle;rounded=0;orthogonalLoop=1;jettySize=auto;html=1;entryX=0.5;entryY=0;entryDx=0;entryDy=0;" edge="1" parent="1" source="IhnVgXeugCR_GJlkB-3m-3" target="IhnVgXeugCR_GJlkB-3m-13">
          <mxGeometry relative="1" as="geometry" />
        </mxCell>
        <mxCell id="IhnVgXeugCR_GJlkB-3m-3" value="User inputted &quot;Rock&quot;, &quot;Paper&quot;, or &quot;Scissor&quot;" style="ellipse;whiteSpace=wrap;html=1;" vertex="1" parent="1">
          <mxGeometry x="120" y="200" width="120" height="80" as="geometry" />
        </mxCell>
        <mxCell id="IhnVgXeugCR_GJlkB-3m-9" style="edgeStyle=orthogonalEdgeStyle;rounded=0;orthogonalLoop=1;jettySize=auto;html=1;entryX=1;entryY=0.75;entryDx=0;entryDy=0;" edge="1" parent="1" source="IhnVgXeugCR_GJlkB-3m-6" target="IhnVgXeugCR_GJlkB-3m-2">
          <mxGeometry relative="1" as="geometry" />
        </mxCell>
        <mxCell id="IhnVgXeugCR_GJlkB-3m-6" value="User didn&#39;t enter a valid prompt, ask them again" style="ellipse;whiteSpace=wrap;html=1;" vertex="1" parent="1">
          <mxGeometry x="280" y="200" width="120" height="80" as="geometry" />
        </mxCell>
        <mxCell id="IhnVgXeugCR_GJlkB-3m-16" style="edgeStyle=orthogonalEdgeStyle;rounded=0;orthogonalLoop=1;jettySize=auto;html=1;entryX=0.5;entryY=0;entryDx=0;entryDy=0;" edge="1" parent="1" source="IhnVgXeugCR_GJlkB-3m-13" target="IhnVgXeugCR_GJlkB-3m-15">
          <mxGeometry relative="1" as="geometry" />
        </mxCell>
        <mxCell id="IhnVgXeugCR_GJlkB-3m-13" value="Randomly select &quot;Rock&quot;, &quot;Paper&quot;, or &quot;Scissor&quot; for the computer" style="rounded=1;whiteSpace=wrap;html=1;" vertex="1" parent="1">
          <mxGeometry x="120" y="320" width="120" height="60" as="geometry" />
        </mxCell>
        <mxCell id="IhnVgXeugCR_GJlkB-3m-18" style="edgeStyle=orthogonalEdgeStyle;rounded=0;orthogonalLoop=1;jettySize=auto;html=1;entryX=0;entryY=0.5;entryDx=0;entryDy=0;" edge="1" parent="1" source="IhnVgXeugCR_GJlkB-3m-15" target="IhnVgXeugCR_GJlkB-3m-17">
          <mxGeometry relative="1" as="geometry" />
        </mxCell>
        <mxCell id="IhnVgXeugCR_GJlkB-3m-15" value="Calculate the winner between the user and the computer" style="rounded=0;whiteSpace=wrap;html=1;" vertex="1" parent="1">
          <mxGeometry x="120" y="420" width="120" height="60" as="geometry" />
        </mxCell>
        <mxCell id="IhnVgXeugCR_GJlkB-3m-17" value="Print out the output for the user (Win, Lose, or Tie)" style="ellipse;whiteSpace=wrap;html=1;" vertex="1" parent="1">
          <mxGeometry x="280" y="410" width="120" height="80" as="geometry" />
        </mxCell>
      </root>
    </mxGraphModel>
  </diagram>
</mxfile>
